<!-- <svg xmlns="http://www.w3.org/2000/svg" role="img" viewBox="0 0 78 24" aria-label="Auralify" aria-hidden="false" height="24" data-encore-id="logoSpotify" class="Svg-sc-6c3c1v-0 dDJltW"><title>Spotify</title><path d="M31.8234 11.0782C29.8042 10.5836 29.4444 10.2376 29.4444 9.50832C29.4444 8.8202 30.077 8.35677 31.0159 8.35677C31.9262 8.35677 32.8296 8.70885 33.7765 9.43308C33.8051 9.45515 33.8407 9.46318 33.8763 9.45816C33.8937 9.45541 33.9104 9.4491 33.9253 9.43962C33.9403 9.43013 33.9532 9.41767 33.9633 9.40299L34.9496 7.97659C34.9691 7.9483 34.9774 7.91361 34.9728 7.87941C34.9682 7.84522 34.9511 7.81402 34.9249 7.79203C33.7982 6.86416 32.5291 6.41378 31.0456 6.41378C28.8653 6.41378 27.3422 7.75591 27.3422 9.67684C27.3422 11.7372 28.6567 12.4654 30.927 13.0292C32.8592 13.4856 33.1854 13.8688 33.1854 14.5529C33.1854 15.3102 32.5262 15.7817 31.4647 15.7817C30.2855 15.7817 29.3239 15.3744 28.2485 14.4185C28.2354 14.4066 28.22 14.3975 28.2033 14.3918C28.1866 14.3861 28.169 14.3839 28.1515 14.3853C28.1339 14.3867 28.1168 14.3917 28.1012 14.4C28.0856 14.4083 28.0719 14.4197 28.0607 14.4335L26.9547 15.7837C26.9322 15.8106 26.921 15.8454 26.9234 15.8806C26.9258 15.9158 26.9416 15.9487 26.9676 15.9722C28.2199 17.1188 29.7587 17.7236 31.4192 17.7236C33.7695 17.7236 35.2877 16.4066 35.2877 14.3683C35.2877 12.645 34.2845 11.6921 31.8234 11.0782ZM42.31 13.3873C42.31 14.8418 41.4363 15.8579 40.185 15.8579C38.9496 15.8579 38.0165 14.7966 38.0165 13.3873C38.0165 11.9789 38.9486 10.9177 40.186 10.9177C41.4165 10.9177 42.31 11.9559 42.31 13.3873ZM40.6041 9.03385C39.5861 9.03385 38.7499 9.44613 38.061 10.2897V9.3408C38.0613 9.30506 38.0476 9.27066 38.023 9.2451C37.9984 9.21955 37.9648 9.20491 37.9296 9.20438H36.1209C36.1033 9.20451 36.086 9.20814 36.0699 9.21507C36.0537 9.222 36.0391 9.23208 36.0268 9.24475C36.0145 9.25742 36.0048 9.27242 35.9982 9.2889C35.9916 9.30538 35.9883 9.32302 35.9884 9.3408V19.8873C35.9884 19.9626 36.0477 20.0237 36.1209 20.0237H37.9296C37.9648 20.0232 37.9984 20.0086 38.023 19.983C38.0476 19.9575 38.0613 19.9231 38.061 19.8873V16.5581C38.7509 17.3515 39.5861 17.7387 40.6041 17.7387C42.4968 17.7387 44.4123 16.2441 44.4123 13.3873C44.4123 10.5295 42.4968 9.03385 40.6041 9.03385ZM49.3235 15.8729C48.0267 15.8729 47.0502 14.8046 47.0502 13.3873C47.0502 11.9649 47.9931 10.9317 49.2938 10.9317C50.5985 10.9317 51.5819 12.001 51.5819 13.4194C51.5819 14.8408 50.6331 15.8729 49.3235 15.8729ZM49.3235 9.03486C46.8862 9.03486 44.9766 10.9608 44.9766 13.4184C44.9766 15.8499 46.8733 17.7557 49.2938 17.7557C51.739 17.7557 53.6545 15.8368 53.6545 13.3873C53.6545 10.9468 51.7529 9.03385 49.3235 9.03385V9.03486ZM58.8592 9.20438H56.8697V7.11795C56.8699 7.10013 56.8667 7.08243 56.8601 7.06589C56.8536 7.04935 56.8439 7.0343 56.8316 7.0216C56.8192 7.00891 56.8046 6.99883 56.7884 6.99195C56.7722 6.98507 56.7548 6.98152 56.7372 6.98153H54.9285C54.8935 6.98205 54.86 6.99655 54.8354 7.02189C54.8108 7.04723 54.797 7.08137 54.797 7.11694V9.20438H53.9273C53.9098 9.20451 53.8925 9.20815 53.8764 9.21509C53.8604 9.22203 53.8458 9.23213 53.8336 9.24481C53.8213 9.25749 53.8117 9.2725 53.8052 9.28898C53.7988 9.30545 53.7956 9.32306 53.7958 9.3408V10.9357C53.7958 11.0099 53.8551 11.0711 53.9273 11.0711H54.797V15.1969C54.797 16.864 55.6055 17.7096 57.2008 17.7096C57.8491 17.7096 58.3868 17.5722 58.8948 17.2763C58.9152 17.2644 58.9322 17.2474 58.944 17.2268C58.9558 17.2061 58.962 17.1827 58.962 17.1589V15.6402C58.962 15.6171 58.9561 15.5944 58.9451 15.5743C58.934 15.5541 58.9181 15.5371 58.8988 15.5249C58.8797 15.5128 58.8578 15.5059 58.8353 15.5048C58.8128 15.5038 58.7904 15.5086 58.7703 15.5188C58.4214 15.6994 58.0853 15.7817 57.7088 15.7817C57.1286 15.7817 56.8687 15.5108 56.8687 14.906V11.0701H58.8592C58.8768 11.07 58.8941 11.0664 58.9102 11.0594C58.9264 11.0525 58.941 11.0424 58.9533 11.0298C58.9656 11.0171 58.9753 11.0021 58.9819 10.9856C58.9885 10.9691 58.9918 10.9515 58.9917 10.9337V9.33879C58.9918 9.32106 58.9885 9.30347 58.9819 9.28705C58.9753 9.27062 58.9655 9.25569 58.9532 9.2431C58.9409 9.23051 58.9263 9.22052 58.9101 9.2137C58.894 9.20689 58.8767 9.20338 58.8592 9.20338V9.20438ZM65.7926 9.21241V8.95662C65.7926 8.20229 66.0743 7.86525 66.7069 7.86525C67.0834 7.86525 67.3869 7.94249 67.7259 8.05885C67.7458 8.06532 67.7669 8.06688 67.7876 8.06339C67.8082 8.0599 67.8277 8.05146 67.8445 8.03879C67.8617 8.02619 67.8757 8.0096 67.8853 7.99041C67.8949 7.97122 67.8999 7.94998 67.8998 7.92845V6.36563C67.9001 6.33654 67.891 6.30815 67.8741 6.28466C67.8572 6.26118 67.8333 6.24384 67.8059 6.23523C67.3194 6.08322 66.8126 6.00877 66.3036 6.01455C64.6333 6.01455 63.7497 6.97952 63.7497 8.80314V9.19635H62.8809C62.8457 9.19662 62.812 9.211 62.7872 9.23637C62.7624 9.26174 62.7485 9.29603 62.7485 9.33177V10.9347C62.7485 11.0099 62.8078 11.0711 62.8809 11.0711H63.7507V17.4348C63.7507 17.51 63.809 17.5702 63.8821 17.5702H65.6908C65.763 17.5702 65.8223 17.51 65.8223 17.4348V11.0701H67.5114L70.098 17.4317C69.8044 18.1008 69.5148 18.2342 69.1214 18.2342C68.8022 18.2342 68.4671 18.1359 68.1232 17.9433C68.1073 17.9346 68.0898 17.9292 68.0718 17.9275C68.0538 17.9257 68.0357 17.9277 68.0184 17.9333C68.0012 17.9395 67.9854 17.9491 67.9719 17.9617C67.9585 17.9743 67.9478 17.9896 67.9403 18.0065L67.3276 19.3858C67.3133 19.4168 67.3112 19.4522 67.3217 19.4848C67.3321 19.5174 67.3544 19.5447 67.3839 19.5613C67.9715 19.9033 68.6389 20.0787 69.3162 20.0689C70.6504 20.0689 71.3888 19.4309 72.0401 17.7136L75.1772 9.39697C75.1851 9.37633 75.1879 9.35406 75.1855 9.33206C75.1831 9.31005 75.1755 9.28896 75.1633 9.27058C75.1514 9.25244 75.1352 9.23756 75.1162 9.22724C75.0973 9.21693 75.0761 9.21149 75.0546 9.2114H73.1718C73.1441 9.21153 73.1172 9.22039 73.0947 9.23674C73.0722 9.25309 73.0553 9.27614 73.0462 9.30268L71.1179 14.9541L69.0058 9.29867C68.9965 9.27304 68.9797 9.25092 68.9576 9.23531C68.9355 9.21971 68.9092 9.21136 68.8823 9.2114H65.7926V9.21241ZM61.7729 9.20438H59.9642C59.929 9.20491 59.8954 9.21955 59.8708 9.2451C59.8462 9.27066 59.8325 9.30506 59.8328 9.3408V17.4348C59.8328 17.51 59.8921 17.5702 59.9652 17.5702H61.7739C61.8461 17.5702 61.9054 17.51 61.9054 17.4348V9.3398C61.9054 9.30406 61.8915 9.26976 61.8666 9.2444C61.8418 9.21903 61.8082 9.20464 61.7729 9.20438ZM60.8775 5.51902C60.5318 5.52114 60.2011 5.6624 59.958 5.91179C59.7148 6.16117 59.5792 6.49829 59.5807 6.84912C59.5798 7.023 59.6127 7.19536 59.6774 7.35636C59.7421 7.51736 59.8375 7.66384 59.958 7.78745C60.0785 7.91105 60.2218 8.00936 60.3797 8.07675C60.5377 8.14414 60.7071 8.1793 60.8785 8.18022C61.2243 8.1781 61.5552 8.0367 61.7983 7.7871C62.0415 7.53749 62.177 7.20012 62.1752 6.84912C62.1752 6.11385 61.5931 5.51902 60.8775 5.51902ZM76.7951 10.0099H76.464V10.4432H76.7951C76.9602 10.4432 77.059 10.3599 77.059 10.2265C77.059 10.0851 76.9602 10.0099 76.7951 10.0099ZM77.0096 10.6278L77.3704 11.1454H77.0659L76.7427 10.6709H76.464V11.1454H76.21V9.77414H76.805C77.1154 9.77414 77.3199 9.93764 77.3199 10.2115C77.3243 10.3067 77.2956 10.4005 77.2389 10.4765C77.1822 10.5526 77.1011 10.6061 77.0096 10.6278ZM76.7279 9.31873C76.0756 9.31873 75.5824 9.85037 75.5824 10.5014C75.5824 11.1514 76.0726 11.676 76.721 11.676C77.3733 11.676 77.8675 11.1444 77.8675 10.4934C77.8675 9.84335 77.3763 9.31873 76.7279 9.31873ZM76.721 11.8064C76.5529 11.806 76.3865 11.7719 76.2315 11.706C76.0764 11.6401 75.9357 11.5437 75.8175 11.4224C75.6993 11.3012 75.6058 11.1573 75.5426 10.9993C75.4794 10.8412 75.4475 10.672 75.449 10.5014C75.449 9.78517 76.0123 9.18833 76.7279 9.18833C76.896 9.18872 77.0624 9.22285 77.2174 9.28874C77.3725 9.35464 77.5132 9.451 77.6314 9.57229C77.7496 9.69358 77.8431 9.8374 77.9063 9.99547C77.9696 10.1535 78.0014 10.3228 77.9999 10.4934C77.9999 11.2096 77.4366 11.8074 76.721 11.8074V11.8064Z M19.0985 10.6382C15.2302 8.34115 8.85004 8.13001 5.15734 9.25061C4.56443 9.4307 3.93745 9.09586 3.75774 8.50285C3.57803 7.90967 3.91237 7.283 4.50579 7.10274C8.74454 5.81575 15.7911 6.06437 20.244 8.70775C20.7776 9.02438 20.9524 9.71333 20.6363 10.2458C20.3199 10.7793 19.6303 10.9549 19.0985 10.6382ZM17.6847 14.3488C14.4602 12.3664 9.54258 11.7923 5.72724 12.9502C5.23257 13.0996 4.71006 12.8208 4.55976 12.327C4.41084 11.8322 4.68965 11.3109 5.1838 11.1605C9.54206 9.83755 14.9602 10.4784 18.6638 12.7544C19.1038 13.0254 19.2424 13.6014 18.9717 14.0407C18.7003 14.481 18.1247 14.6191 17.6847 14.3488ZM16.475 17.5571C13.657 15.8349 10.1104 15.446 5.93306 16.4002C5.53058 16.4923 5.12966 16.2401 5.03782 15.8377C4.94546 15.4352 5.19677 15.0339 5.60011 14.9421C10.1715 13.8972 14.0923 14.3469 17.2554 16.2796C17.6079 16.4949 17.7191 16.9557 17.5034 17.3084C17.2879 17.6619 16.8275 17.7727 16.475 17.5571ZM0 11.9998C0 18.6277 5.37285 24 12 24C18.6277 24 24 18.6277 24 11.9998C24 5.37264 18.6277 0 12 0C5.37285 0 0 5.37264 0 11.9998Z"></path></svg>
 -->

<svg  width="48.0557983398437" height="106.69683764884293" viewBox="-4 0 373.66666666666663 108.3233896815412" class="looka-1j8o68f"><defs id="SvgjsDefs1555"></defs><g id="SvgjsG1556" featurekey="HKaMnE-0" transform="matrix(0.833333969116696,0,0,0.833333969116696,-4,25)" fill="#ffffff" data-darkreader-inline-fill="" style="--darkreader-inline-fill: #f2f0ed;"><g xmlns="http://www.w3.org/2000/svg"><path fill-rule="evenodd" clip-rule="evenodd" d="M47.102,0c1.928,0,3.856,0,5.784,0c8.338,0.642,15.042,2.917,20.99,5.95   c-9.545,9.958-19.296,19.708-29.253,29.252c-2.969-3.846-6.214-6.932-13.221-6.279c-6.848,0.638-12.008,6.789-12.065,13.552   c-0.093,11.1,12.636,17.426,21.981,11.239c2.455-1.625,4.708-4.378,6.941-6.611c6.658-6.659,13.369-13.473,19.997-20.164   c5.471,4.927,10.706,10.542,16.196,16.032c0.574,0.574,2.305,1.916,2.314,2.148c0.021,0.503-3.571,3.738-3.967,4.132   c-4.035,4.035-8.129,8.161-12.23,11.9c-2.845-5.982-12.565-8.104-18.84-4.297c-3.834,2.326-6.286,6.06-6.446,11.238   c-0.221,7.125,4.855,13.32,11.9,14.047c9.767,1.009,13.735-5.969,18.51-10.742c8.042-8.042,16.394-16.425,24.295-23.963   c0.308,16.392-5.383,28.214-13.388,36.524c-8.017,8.322-18.679,14.98-33.715,16.03c-1.928,0-3.855,0-5.784,0   c-14.023-1.231-24.828-6.812-32.558-14.543C6.814,77.715,1.225,66.916,0,52.887c0-1.929,0-3.857,0-5.785   C0.812,33.583,7.182,22,14.709,14.544C22.682,6.645,33.328,1.089,47.102,0z"></path></g></g><g id="SvgjsG1557" featurekey="J3GnXt-0" transform="matrix(3.863613745037587,0,0,3.863613745037587,102.92272871994913,12.072832738873682)" fill="#ffffff" data-darkreader-inline-fill="" style="--darkreader-inline-fill: #f2f0ed;"><path d="M8 5.84 l6.06 14.16 l-2.24 0 l-1.42 -3.5 l-6.74 0 l-1.4 3.5 l-2.24 0 l6.24 -14.16 l1.74 0 z M4.34 14.82 l5.36 0 l-2.64 -6.5 l-0.04 0 z M17.240000000000002 10.52 l0 5.68 c0 0.74666 0.19666 1.3267 0.59 1.74 s0.91668 0.62 1.57 0.62 c0.84 0 1.49 -0.27666 1.95 -0.83 s0.69 -1.3033 0.69 -2.25 l0 -4.96 l1.8 0 l0 9.48 l-1.8 0 l0 -1.46 l-0.04 0 c-0.25334 0.53334 -0.66668 0.95 -1.24 1.25 s-1.2 0.45 -1.88 0.45 c-1.0533 0 -1.89 -0.32666 -2.51 -0.98 s-0.93 -1.5067 -0.93 -2.56 l0 -6.18 l1.8 0 z M31.240000000000002 10.28 c0.33334 0 0.6 0.04 0.8 0.12 l-0.08 1.94 c-0.34666 -0.09334 -0.64666 -0.14 -0.9 -0.14 c-1.7733 0 -2.6734 0.98666 -2.7 2.96 l0 4.84 l-1.8 0 l0 -9.48 l1.8 0 l0 1.46 l0.04 0 c0.24 -0.50666 0.62666 -0.91666 1.16 -1.23 s1.0933 -0.47 1.68 -0.47 z M37.760000000000005 10.28 c1.2 0 2.15 0.27328 2.85 0.81994 s1.07 1.3067 1.11 2.28 l0 5.08 c0 0.48 0.02666 0.99334 0.08 1.54 l-1.6 0 c-0.04 -0.42666 -0.06 -0.90666 -0.06 -1.44 l-0.04 0 c-0.41334 0.61334 -0.89 1.0467 -1.43 1.3 s-1.17 0.38 -1.89 0.38 c-0.97334 0 -1.7633 -0.26 -2.37 -0.78 s-0.91 -1.2067 -0.91 -2.06 c0 -1.08 0.45334 -1.8967 1.36 -2.45 s2.1866 -0.83 3.84 -0.83 l1.34 0 l0 -0.34 c0 -0.64 -0.21 -1.1433 -0.63 -1.51 s-0.97 -0.55 -1.65 -0.55 c-0.50666 0 -0.95 0.07666 -1.33 0.23 s-0.83 0.43668 -1.35 0.85002 l-1.08 -1.12 c1.0267 -0.90666 2.28 -1.3733 3.76 -1.4 z M35.300000000000004 17.259999999999998 c0 1.0267 0.68002 1.54 2.04 1.54 c0.81334 0 1.4633 -0.24334 1.95 -0.73 s0.73666 -1.19 0.75 -2.11 l0 -0.52 l-1.02 0 c-1.1733 0 -2.0866 0.15 -2.74 0.45 s-0.98 0.75666 -0.98 1.37 z M46.28 4.880000000000001 l0 15.12 l-1.8 0 l0 -15.12 l1.8 0 z M50.2 5.800000000000001 c0.36 0 0.67002 0.13002 0.93002 0.39002 s0.39 0.57 0.39 0.93 c0 0.37334 -0.13334 0.68668 -0.4 0.94002 s-0.57332 0.38 -0.91998 0.38 c-0.37334 0 -0.68668 -0.12666 -0.94002 -0.38 s-0.38 -0.56668 -0.38 -0.94002 s0.13334 -0.68668 0.4 -0.94002 s0.57332 -0.38 0.91998 -0.38 z M51.1 10.52 l0 9.48 l-1.8 0 l0 -9.48 l1.8 0 z M57.9 4.640000000000001 c0.53334 0 0.97998 0.04666 1.34 0.14 l-0.2 1.6 c-0.29334 -0.12 -0.63334 -0.18 -1.02 -0.18 c-0.54666 0 -0.94 0.15 -1.18 0.45 s-0.36 0.83 -0.36 1.59 l0 2.28 l2.14 0 l0 1.56 l-2.16 0 l0 7.92 l-1.8 0 l0 -7.92 l-2.04 0 l0 -1.56 l2.04 0 l0 -2.2 c0 -1.2667 0.25666 -2.1966 0.77 -2.79 s1.3367 -0.89 2.47 -0.89 z M61.56 10.52 l2.82 7.4 l0.04 0 l2.68 -7.4 l1.94 0 l-4.48 11.48 c-0.41334 1.1067 -0.86668 1.85 -1.36 2.23 s-1.1267 0.57 -1.9 0.57 c-0.65334 0 -1.1867 -0.08666 -1.6 -0.26 l0.22 -1.62 c0.37334 0.13334 0.73334 0.2 1.08 0.2 c0.56 0 0.96334 -0.13666 1.21 -0.41 s0.46332 -0.66334 0.64998 -1.17 l0.56 -1.48 l-3.94 -9.54 l2.08 0 z"></path></g></svg>